# xmcd
#
# Track frame offsets:
#	150
#	12875
#	23966
#	36326
#	45912
#	56656
#	68234
#	79624
#	93152
#	106159
#	117726
#	130590
#	142004
#	153012
#	165907
#
# Disc length: 2364
#
# Revision: 3
# Processed by: cddbd v1.5.1PL0 Copyright (c) Steve Scherf et al.
# Submitted via: audiograbber 1.80.04
# Normalized: r1:TDELIM( - ),TSWAP
#
DISCID=b4093a0f
DTITLE=Various Atrists - Classic Country, 1950 - 1959, CD-2
DYEAR=1900
DGENRE=Country Classic
TTITLE0=George Jones - White Lighting
TTITLE1=Webb Pierce - There Stands The Glass
TTITLE2=Hank Williams - Your Cheatin' Heart
TTITLE3=Elvis Presley - Heartbreak Hotel
TTITLE4=Everly Brothers - Bye Bye Love
TTITLE5=Don Gibson - Oh Lonesome Me
TTITLE6=Stonewall Jackson - Waterloo
TTITLE7=Ray Price - Heartaches By The Number
TTITLE8=Kitty Wells - It Wasn't God Who Made Honky Tonk Angels
TTITLE9=Marty Robbins - A White Sport Coat (And A Pink Carnation)
TTITLE10=Patti Page - Tennessee Waltz
TTITLE11=Eddy Arnold - Cattle Call
TTITLE12=Ferlin Husky - Gone
TTITLE13=Jim Reeves - Four Walls
TTITLE14=Hank Locklin - Send Me The Pillow You Dream On
EXTD=
EXTT0=
EXTT1=
EXTT2=
EXTT3=
EXTT4=
EXTT5=
EXTT6=
EXTT7=
EXTT8=
EXTT9=
EXTT10=
EXTT11=
EXTT12=
EXTT13=
EXTT14=
PLAYORDER=
